<svg xmlns="http://www.w3.org/2000/svg" width="370" height="85" viewBox="0 0 370 85"><path d="M-428.8,462.99c-4.83,5.3-4.877,5.345-9.238,10.5h8.627c1.736,0,4.174,0,5.252-3.188h1.173l-1.36,8.581h-17.772v-3c1.876-2.579,3.986-5.533,7.738-10.972,3.938-5.721,5.111-8.581,5.111-11.161,0-3.376-2.673-4.548-4.83-4.548-4.455,0-5.861,3.658-6.612,5.58l-1.078-.422a15.7,15.7,0,0,1,1.594-5.252,9.161,9.161,0,0,1,8.159-4.923c5.064,0,9.1,3.517,9.1,8.534C-422.944,455.159-423.6,457.223-428.8,462.99Z" transform="translate(442.342 -444.187)" fill="#fff"/><path d="M-405.364,479.354c-5.392,0-9.565-6.048-9.565-17.583,0-11.816,4.36-17.537,9.565-17.537,5.3,0,9.566,5.861,9.566,17.537C-395.8,473.54-400.112,479.354-405.364,479.354Zm1.266-32.963a1.579,1.579,0,0,0-1.266-.844c-1.219,0-1.876,2.016-2.016,2.438-.8,2.438-1.172,12.192-1.172,15.521,0,2.626.234,14.536,3.188,14.536,1.219,0,1.829-1.97,1.97-2.438.469-1.407,1.219-6.612,1.219-13.833C-402.175,458.348-402.363,448.829-404.1,446.391Z" transform="translate(442.342 -444.187)" fill="#fff"/><path d="M-374.42,462.99c-4.83,5.3-4.876,5.345-9.238,10.5h8.628c1.736,0,4.173,0,5.252-3.188h1.172l-1.359,8.581h-17.772v-3c1.875-2.579,3.986-5.533,7.737-10.972,3.939-5.721,5.111-8.581,5.111-11.161,0-3.376-2.673-4.548-4.83-4.548-4.454,0-5.862,3.658-6.612,5.58l-1.078-.422a15.721,15.721,0,0,1,1.594-5.252,9.161,9.161,0,0,1,8.159-4.923c5.065,0,9.1,3.517,9.1,8.534C-368.559,455.159-369.215,457.223-374.42,462.99Z" transform="translate(442.342 -444.187)" fill="#fff"/><path d="M-350.979,479.354c-5.393,0-9.565-6.048-9.565-17.583,0-11.816,4.36-17.537,9.565-17.537,5.3,0,9.565,5.861,9.565,17.537C-341.414,473.54-345.727,479.354-350.979,479.354Zm1.266-32.963a1.581,1.581,0,0,0-1.266-.844c-1.219,0-1.876,2.016-2.017,2.438-.8,2.438-1.171,12.192-1.171,15.521,0,2.626.234,14.536,3.188,14.536,1.219,0,1.829-1.97,1.97-2.438.468-1.407,1.218-6.612,1.218-13.833C-347.791,458.348-347.978,448.829-349.713,446.391Z" transform="translate(442.448 -444.187)" fill="#fff"/><path d="M-302.01,471.43h-11.131v8.17c0,.749-.393,1.034-1.177,1.39a7.005,7.005,0,0,1-2.283.607c-1,0-1.32-.392-1.32-.963v-9.2h-15.8l-.429-.821h5.708V459.764l4.852,2.14h5.673V454.77h-7.35a25.454,25.454,0,0,1-8.812,8.24l-.249-.285a32.871,32.871,0,0,0,6.315-14.02l5.564,1.391c.358.107.643.214.643.535,0,.428-.214.5-1.213.785-.428.678-.785,1.213-1.713,2.568h15.447l2.427-2.675a.66.66,0,0,1,.607-.321.859.859,0,0,1,.606.321l2.818,2.355a.851.851,0,0,1,.357.642c0,.357-.321.464-.643.464h-9.6a.638.638,0,0,1,.321.535c0,.392-.357.535-.749.713V461.9h3l2.1-2.461c.179-.214.286-.357.572-.357a.933.933,0,0,1,.641.321l2.5,2.176a.86.86,0,0,1,.322.643c0,.356-.322.463-.607.463h-8.526v7.92h4.78l2.5-3.068c.179-.214.286-.356.608-.356a.926.926,0,0,1,.606.32l2.925,2.783a.85.85,0,0,1,.356.678C-301.369,471.287-301.725,471.43-302.01,471.43Zm-15.911-8.741h-5.958v7.92h5.958Z" transform="translate(442.488 -444.187)" fill="#fff"/><path d="M-281.734,460.927a67.917,67.917,0,0,0-1.97,17.959h-6.8c.609-10.6,5.252-19.553,11.16-28.838h-8.019c-4.454,0-5.158,2.345-6,5.111h-1.172l1.547-10.5h17.631V447.7A36.846,36.846,0,0,0-281.734,460.927Z" transform="translate(442.534 -444.187)" fill="#fff"/><path d="M-242.7,454.163v23.153a2.66,2.66,0,0,1-1,2.461,6.925,6.925,0,0,1-3.888,1.107c-1.107,0-1.142-.108-1.178-.857-.178-2.354-1.926-2.782-4.709-3.46v-.357c.071,0,3.925.214,4.674.214,1.07,0,1.391-.606,1.391-1.605v-7.456h-10.381c-.643,5.53-3.461,11.13-10.56,13.842l-.214-.321c3.6-2.676,4.994-6.636,5.743-10.846.607-3.282.607-4.352.607-20.549l4.816,1.927h9.775l1.32-1.5a1.467,1.467,0,0,1,1.106-.463,1.412,1.412,0,0,1,.963.428l2.426,2.069a.839.839,0,0,1,.321.678C-241.49,452.986-241.561,453.021-242.7,454.163Zm-4.709,5.494h-10.06c0,2,0,4.994-.214,6.921h10.274Zm0-7.456h-10.06v6.671h10.06Z" transform="translate(442.572 -444.187)" fill="#fff"/><path d="M-216.416,470.821v4.642c0,1.734.891,2.2,3,2.2v1.219h-12.05v-1.219h.7a2.043,2.043,0,0,0,2.345-2.2v-4.642h-9.894v-1.736l14.4-24.851h1.5v24.851h3.048v1.736Zm-6-15.474-7.972,13.738h7.972Z" transform="translate(442.614 -444.187)" fill="#fff"/><path d="M-180.863,454.663v23.474c0,1.07-2.319,2.033-3.675,2.033a1.166,1.166,0,0,1-1.32-1.177v-2.248h-12.308v1.463c0,1.855-3.139,2.426-3.817,2.426-1.142,0-1.142-.749-1.142-1.356V449.632l5.067,2.319h12.165l1.355-1.463a1.535,1.535,0,0,1,1.178-.642,1.823,1.823,0,0,1,1.106.464l2.319,1.855a.9.9,0,0,1,.428.785C-179.507,453.342-179.543,453.628-180.863,454.663Zm-4.995-1.892h-12.308V463.9h12.308Zm0,11.952h-12.308v11.2h12.308Z" transform="translate(442.656 -444.187)" fill="#fff"/><path d="M-139.758,464.509c-.928,1.391-5.1,4.923-8.955,4.923-2.247,0-5.208-1.356-7.456-2.5-4.995-2.533-6.529-2.569-8.027-2.569a11.055,11.055,0,0,0-6.743,2.355l-.5-.571c.928-1.392,5.065-4.923,8.919-4.923,2.283,0,5.244,1.355,7.491,2.5,4.994,2.533,6.528,2.568,8.028,2.568a11.119,11.119,0,0,0,6.742-2.354Z" transform="translate(442.706 -444.24)" fill="#fff"/><path d="M-119.66,460.927a67.875,67.875,0,0,0-1.969,17.959h-6.8c.609-10.6,5.252-19.553,11.16-28.838h-8.019c-4.454,0-5.158,2.345-6,5.111h-1.171l1.546-10.5h17.631V447.7A36.846,36.846,0,0,0-119.66,460.927Z" transform="translate(442.796 -444.187)" fill="#fff"/><path d="M-81.2,454.663v23.474c0,1.07-2.319,2.033-3.674,2.033a1.166,1.166,0,0,1-1.321-1.177v-2.248H-98.5v1.463c0,1.855-3.14,2.426-3.818,2.426-1.141,0-1.141-.749-1.141-1.356V449.632l5.066,2.319h12.165l1.356-1.463a1.532,1.532,0,0,1,1.177-.642,1.823,1.823,0,0,1,1.106.464l2.319,1.855a.9.9,0,0,1,.428.785C-79.845,453.342-79.881,453.628-81.2,454.663Zm-5-1.892H-98.5V463.9H-86.2Zm0,11.952H-98.5v11.2H-86.2Z" transform="translate(442.796 -444.187)" fill="#fff"/><path d="M-425.016,500.777c.76.038,2.166.228,2.166,1.216a1.75,1.75,0,0,1-.57,1.064c-1.825,1.937-4.978,2.811-7.828,3.571-4.71,10.335-5.546,12.158-6.952,14.742-1.406,2.508-1.634,2.888-2.28,2.888-1.6,0-1.862-1.786-1.862-2.47,0-1.1.38-1.672,1.368-3.04a62.127,62.127,0,0,0,6.269-11.322,7.662,7.662,0,0,1-1.253.114,4.215,4.215,0,0,1-3.154-1.216,6.941,6.941,0,0,1-1.634-3.3.2.2,0,0,1,.228-.228q.114,0,.228.228a4.759,4.759,0,0,0,3.685,1.444,15,15,0,0,0,3.306-.494c.95-2.66,1.14-3.533,1.14-4.407a2.025,2.025,0,0,0-1.292-1.976c-.341-.19-.341-.343-.341-.418,0-.532.987-.532,1.367-.532,3.229,0,5.092,2.279,4.977,3.42A4.586,4.586,0,0,0-425.016,500.777Zm-.95,17.516a24.691,24.691,0,0,1-.646-4.218c0-3.305,1.785-5.205,6.079-5.205.228,0,1.178.076,1.367.038.115-.038.191-.114.191-.19,0-.684-4.142-1.862-5.7-1.862-.494,0-.684,0-.684-.152,0-.418,2.621-1.216,5.053-1.216,4.141,0,7.029,2.052,7.029,3.572,0,.266-.152,1.558-1.368,1.558a8.727,8.727,0,0,1-1.6-.266,10.591,10.591,0,0,0-3.039-.57c-3.305,0-3.609,2.432-3.609,3.154,0,1.747,1.025,6.686,1.367,6.953a25.544,25.544,0,0,0,2.812,1.1c2.242.95,3.914,2.128,3.914,4.028,0,.912-.456,1.671-1.445,1.671a4.136,4.136,0,0,1-2.09-1.1,6.809,6.809,0,0,0-3.267-1.862c.076,2.811-2.887,4.483-6.079,4.483-.608,0-6.877-.228-6.877-4.635,0-4.1,5.168-4.483,7.181-4.483.608,0,.988.037,1.52.075C-425.89,518.824-425.89,518.711-425.966,518.293Zm-3,6.915c.873,0,3.533-.114,3.533-2.66a.743.743,0,0,0-.152-.532,7.009,7.009,0,0,0-3.534-.8c-2.735,0-3.989,1.026-3.989,1.938C-433.109,524.865-429.917,525.208-428.967,525.208Zm1.861-24.165c0-.418-.114-.494-.57-.722-.949.608-1.1.684-1.976,2.621C-427.79,502.3-427.106,502.031-427.106,501.043Z" transform="translate(442.342 -444.425)" fill="#fff"/><path d="M-398.528,520.269a12.07,12.07,0,0,0,4.484,1.6,2.118,2.118,0,0,0,1.785-.912c.912-1.139,2.356-5.281,2.356-9.308,0-1.407,0-3.457-1.976-3.457a9.9,9.9,0,0,0-2.736.645c-1.443,3.419-6.877,15.122-7.864,16.489a2.039,2.039,0,0,1-1.6,1.027c-.95,0-1.748-1.292-1.748-2.812a3.457,3.457,0,0,1,1.026-2.508,33,33,0,0,0,6.422-10.866c-.418.151-1.749.646-2.015.76-.76.418-1.026.569-1.4.569a5.411,5.411,0,0,1-3.61-2.735,5.7,5.7,0,0,1-.646-1.786c0-.19.038-.266.19-.266a2,2,0,0,1,.456.114c1.938,1.026,2.128,1.14,2.888,1.14a46.589,46.589,0,0,0,5.281-1.292,30.566,30.566,0,0,0,1.064-5.585,2.09,2.09,0,0,0-1.634-2.241c-.152-.038-.418-.076-.418-.3,0-.38,1.786-.874,2.926-.874,1.9,0,4.179,1.9,4.179,3.382,0,.532-.076.532-.836,1.254-.608.532-1.064,1.975-1.633,3.724.38-.039,1.291-.191,1.823-.191,3.8,0,4.977,3.078,4.977,7.3,0,5.852-2.622,13.83-6.573,13.83-1.4,0-1.823-.456-1.823-1.367,0-.114.075-.609.075-.685,0-.8-1.063-2.127-1.975-2.925a18.109,18.109,0,0,1-1.6-1.444Zm15.159-5.852c2.737-.684,3.535-1.1,3.535-2.2s-.609-3.762-3.648-6.535c-.342-.342-2.28-1.748-2.28-1.863s.114-.227.3-.227a19.286,19.286,0,0,1,5.662,2.621,10.209,10.209,0,0,1,4.711,8.436c0,1.823-.989,2.393-1.71,2.393s-.913-.19-1.634-1.1c-.836-.988-1.976-1.14-4.94-1.14Z" transform="translate(442.342 -444.425)" fill="#fff"/><path d="M-353.841,525.7c2.621-.456,12.234-3.039,12.234-14.285,0-8.892-7.789-10.107-10.373-10.107a11.608,11.608,0,0,0-1.6.114,3.744,3.744,0,0,1,1.216,2.811c0,1.976-1.557,11.741-7.675,18.086-1.063,1.1-2.165,2.242-3.343,2.242a1.946,1.946,0,0,1-1.938-1.938c-.189-1.368-.266-1.862-.836-2.47-1.443-1.443-2.052-2.09-2.052-4.863,0-7.333,6.384-15.5,16.756-15.5,9.537,0,14.172,6.535,14.172,13.565,0,12.461-14.361,12.689-14.855,12.689a10.69,10.69,0,0,1-1.71-.113ZM-364.4,514.379c0,.267.076,4.483,1.634,4.483,2.812,0,8.131-10.372,8.131-15.387a8.751,8.751,0,0,0-.229-1.786C-361.212,503.36-364.4,509.554-364.4,514.379Z" transform="translate(442.441 -444.425)" fill="#fff"/><path d="M-325.226,526.043h4.065c2.85,0,5.282-2.432,5.623-2.773a9.353,9.353,0,0,0,3.116-5.965h.95l-.418,9.726h-18.845v-.988l14.209-25.76h-4.255a7.327,7.327,0,0,0-5.167,2.318c-2.013,2.013-2.393,3.647-2.736,6.079h-.987l.379-9.385h18.276v.988Z" transform="translate(442.487 -444.425)" fill="#fff"/><path d="M-284.265,527.031h-21.847v-.988c2.546-.037,3.306-.38,3.306-2.963V503.247c0-2.584-.609-2.926-3.306-2.964V499.3h21.087l.722,9.195h-.988a10.492,10.492,0,0,0-3.343-6.269,8.09,8.09,0,0,0-5.585-1.938c-2.926,0-3.572,1.1-3.572,2.964v8.967h2.052c1.026,0,3.913-.532,4.179-5.281h.95V519.2h-.95c-.228-4.976-2.735-6-4.179-6h-2.052v9.879c0,1.823.836,2.963,3.534,2.963a8.6,8.6,0,0,0,6.839-3.191A12.2,12.2,0,0,0-284.987,517H-284Z" transform="translate(442.52 -444.425)" fill="#fff"/><path d="M-258.957,527.411c-1.861,0-4.749-1.216-5.2-6.763-.38-4.332-.418-5.243-1.177-6.383a2.7,2.7,0,0,0-2.318-1.1h-2.773V523c0,2.7.607,3,3.229,3.039v.988h-11.55v-.988c2.28-.037,3.3-.418,3.3-3.039V503.36c0-2.7-.645-3.039-3.3-3.077V499.3h13.868c5.319,0,8.32,3.192,8.32,6.687,0,3.648-3.039,6.156-8.511,6.763,3.268,1.1,4.9,2.812,6.156,7.295.379,1.406,1.1,4.065,2.355,4.065.988,0,1.406-2.393,1.482-2.773h.988C-254.435,523.193-255.2,527.411-258.957,527.411Zm-8.13-27.128c-2.85,0-3.343.76-3.343,3.077v8.854h3.343c3.876,0,4.9-2.926,4.9-5.814C-262.186,502.145-263.364,500.283-267.087,500.283Z" transform="translate(442.557 -444.425)" fill="#fff"/><path d="M-237.068,527.411c-5.661,0-11.854-6.041-11.854-14.248s6.193-14.21,11.854-14.21,11.817,6.041,11.817,14.21C-225.251,521.408-231.483,527.411-237.068,527.411Zm0-27.393c-5.092,0-6.269,6.344-6.269,13.145,0,6.65,1.1,13.147,6.269,13.147,5.358,0,6.231-7.106,6.231-13.147C-230.837,506.666-231.863,500.018-237.068,500.018Z" transform="translate(442.596 -444.425)" fill="#fff"/><path d="M-187.937,527.829c-.531,1.254-.607,1.406-.987,1.406-.3,0-.609-.228-1.14-.608-6.953-4.978-9.727-12.424-10.524-19.529-.571,5.965-1.748,9.346-4.028,12.272a20.861,20.861,0,0,1-14.97,8.055l-.076-.38a20.062,20.062,0,0,0,8.891-6.232c3.837-4.672,4.559-9.156,5.053-15.387h-13.3l-.456-.836h13.792c.228-3.8.265-8.511.265-11.284l5.928.57c.456.038.836.3.836.684,0,.418-.152.494-1.519,1.1,0,1.483,0,4.522-.229,8.929h8.473l2.546-3.192a.82.82,0,0,1,.607-.341,1.068,1.068,0,0,1,.723.341l2.963,2.85c.228.19.418.342.418.685,0,.38-.38.493-.684.493h-14.514a28.437,28.437,0,0,0,5.358,10.373,21.974,21.974,0,0,0,10.486,7.066v.418C-185.467,525.512-187.063,525.815-187.937,527.829Z" transform="translate(442.645 -444.425)" fill="#fff"/><path d="M-169.352,522.13a14.806,14.806,0,0,0,3.876.8c.607,0,.684-.266.722-.57.152-1.1.152-10.258.152-12.994-1.178.152-5.966.684-8.549,1.709-.076.038-1.368.532-1.444.532-.874,0-3.572-2.735-3.572-4.863,0-.114,0-.342.191-.342a5.214,5.214,0,0,1,1.1.76,3.16,3.16,0,0,0,1.862.456c1.14,0,8.7-.874,10.411-1.063,0-3.116,0-6.65-.494-7.6a2.282,2.282,0,0,0-1.1-.987c-.152-.076-.76-.342-.76-.494,0-.456,1.709-.646,2.127-.646,1.9,0,4.94,1.747,4.94,2.7a11.44,11.44,0,0,1-.836,1.672,16.818,16.818,0,0,0-.607,5.015c1.025-.113,6.268-.607,6.382-.646.19-.038,1.064-.456,1.254-.456.8,0,4.369,1.14,4.369,3a1.058,1.058,0,0,1-1.215,1.1,11.784,11.784,0,0,1-2.2-.266,23,23,0,0,0-3.229-.19c-1.4,0-3.268.076-5.4.265-.076,4.18-.076,4.827-.076,6.688,0,1.14.153,5.281.19,6.421.038.342.152,1.824.152,2.128,0,1.33-.684,4.369-2.279,4.369-.685,0-1.065-.684-1.521-1.823-.342-.874-.76-1.977-4.558-4.484Zm-1.558-5.927c0,4.142-2.355,8.32-4.976,8.32a1.717,1.717,0,0,1-1.634-1.785c0-1.14.645-1.634,2.583-3.154,2.28-1.823,2.888-3.268,3.724-5.889A10.474,10.474,0,0,1-170.91,516.2Zm21.316,4.407a2,2,0,0,1-1.748,2.166c-1.482,0-1.938-1.1-3.04-3.572a18.28,18.28,0,0,0-2.736-3.457A8.826,8.826,0,0,0-160.2,513.7C-154.5,513.885-149.594,517.19-149.594,520.61Z" transform="translate(442.694 -444.425)" fill="#fff"/><path d="M-136.063,511.453c2.394,0,14.1-.683,16.756-.8.342,0,1.937-.493,2.317-.493,1.14,0,3.876,1.823,3.876,3.268,0,.569-.646,1.025-1.444,1.025-.456,0-1.33-.114-1.976-.19a52.531,52.531,0,0,0-6.306-.57c-1.368,0-11.1.722-12.311.912-.418.039-2.355.684-2.849.684s-3.876-1.14-4.142-6.231C-141,510.162-139.71,511.453-136.063,511.453Z" transform="translate(442.796 -444.382)" fill="#fff"/><path d="M-107.333,526.157c7.294-5.319,8.435-12.424,8.435-17.933,0-1.291,0-4.1-.761-4.826-.227-.189-1.519-.8-1.519-1.063,0-.418,1.9-.532,2.166-.532,2.393,0,5.243,2.469,5.243,2.926,0,.265-.874,1.063-.912,1.253-.152.495-.532,4.9-.646,5.814A16.628,16.628,0,0,1-102.2,524.1a14.7,14.7,0,0,1-4.939,2.394ZM-72.8,509.819c-3.116,6.84-10.411,11.361-12.235,12.425a3.333,3.333,0,0,0-1.329,1.178c-.646,1.1-.723,1.216-1.216,1.216-1.482,0-4.179-4.369-4.179-5.129a8.434,8.434,0,0,1,.532-1.368c.38-1.407.38-7.866.38-9.689a40.673,40.673,0,0,0-.267-6.269,2.506,2.506,0,0,0-1.14-1.52c-.189-.114-1.253-.532-1.253-.76,0-.532,1.1-.874,1.938-.874,2.165,0,5.623,2.128,5.623,3.23a8.245,8.245,0,0,1-.646,1.292c-.456,1.063-.874,7.3-.874,12.234,0,2.47,0,2.774.988,2.774,3.191,0,10.677-5.852,13.526-8.853Z" transform="translate(442.796 -444.425)" fill="#fff"/></svg>