<svg xmlns="http://www.w3.org/2000/svg" width="920" height="136" viewBox="0 0 920 136"><g transform="translate(-107.618 258.208)"><g transform="translate(107.618 -204.001)"><path d="M180.263-126.942H155.527c-7.378,0-7.378-6.162-7.378-7.725v-26.559H136.867l5.641,1.129c.781.174,2,.694,2,1.562s-.607,1.042-2.343,1.649c-.434,9.634-4.34,18.313-8.766,22.913-5.642,5.815-15.275,9.374-25.517,9.808l-.26-.868c18.747-6.944,21.958-17.619,22.305-36.193H109.44l-1.041-1.909h61.362l4.34-6.075a1.6,1.6,0,0,1,1.388-.781,2.727,2.727,0,0,1,1.649.694l7.2,5.381a1.838,1.838,0,0,1,.868,1.562c0,.868-.781,1.128-1.476,1.128H161.342a1.634,1.634,0,0,1,.174.695c0,1.042-.869,1.3-2.257,1.823v18.4a2.632,2.632,0,0,0,2.864,2.952h13.54c1.909,0,3.124-1.823,3.645-3.212,1.129-2.777,2.951-8.505,4.079-12.238l.868.174-.781,13.193a3.116,3.116,0,0,0,1.042,2.864,5.938,5.938,0,0,1,1.562,4.079A5.665,5.665,0,0,1,180.263-126.942Zm3.9-57.283c-.26,0-2.083-.174-2.517-.174a69.4,69.4,0,0,1-10.675,5.468l2,1.649a2.052,2.052,0,0,1,.781,1.562c0,.868-.781,1.129-1.475,1.129h-49.9l-1.042-1.91H159.52l4.252-5.988a1.6,1.6,0,0,1,1.389-.782,2.456,2.456,0,0,1,1.562.782l2.17,1.822a37.223,37.223,0,0,0,2.256-7.638H123.24c.521,5.555-1.822,14.061-9.2,14.061-2.083,0-6.336-1.042-6.336-5.729,0-3.124,1.041-3.818,6.075-7.29,3.992-2.777,4.513-5.728,5.034-11.2h.868a24.462,24.462,0,0,1,3.3,8.158h19.268v-11.63l9.981.521c.607.087,3.385.174,3.385,1.736,0,.694-.26,1.3-2.951,2.691v6.682h18.226l2.691-3.992a3.4,3.4,0,0,1,2.43-1.389,3.119,3.119,0,0,1,2.17.521l7.724,6.6a2.473,2.473,0,0,1,1.042,2.083C186.946-185.354,186.165-184.225,184.168-184.225Z" transform="translate(-107.618 204.292)" fill="#fff"/><path d="M272.789-163.309c-.348,2-.434,2.431-1.389,2.431s-6.857-1.91-14.147-8.419c-.087.781-.868.955-1.476.955H244.668a2.067,2.067,0,0,1,.174.781c0,.694-.434,1.041-1.823,1.909v14.928h9.113l4.774-5.9a1.533,1.533,0,0,1,1.388-.781,2.688,2.688,0,0,1,1.563.781l5.641,5.12a2.077,2.077,0,0,1,.868,1.65c0,.867-.781,1.127-1.475,1.127H243.019v20.657h17.445l4.948-6.422a1.875,1.875,0,0,1,1.475-.868,2.453,2.453,0,0,1,1.562.781l6.683,5.728a1.943,1.943,0,0,1,.781,1.562c0,.868-.781,1.129-1.475,1.129H200.057l-1.041-1.91h32.373v-20.657H207.348l-1.042-2h25.083v-17.618H216.808a63.922,63.922,0,0,1-20.657,8.939l-.347-.781c20.05-10.241,29.683-32.807,33.5-42.962l14.928,3.559c.782.173,2.083.867,2.083,1.822,0,1.128-.781,1.736-2.17,2.517,8.506,15.623,25.431,20.57,34.63,23.087v.954C274.438-169.558,273.049-165.131,272.789-163.309Zm-31.072-31.158h-.867c-8.159,11.2-13.8,18.4-21.351,24.215h25l3.384-5.294a1.652,1.652,0,0,1,1.389-.868,2.932,2.932,0,0,1,1.649.781l1.215,1.042A58.362,58.362,0,0,1,241.717-194.467Z" transform="translate(-107.618 204.292)" fill="#fff"/><path d="M367.4-133.452c-4.426,1.128-5.034,3.819-6.162,8.593a1.385,1.385,0,0,1-1.3,1.214c-1.476,0-7.2-6.249-11.891-14.754-2.517,2.777-9.547,10.328-24.562,15.362l-.347-.868a61.69,61.69,0,0,0,21.524-21.784,79.353,79.353,0,0,1-5.468-28.729h-1.648v8.68c0,9.026-4.514,32.2-20.483,42.614l-.608-.607c3.992-4.427,7.291-12.064,8.506-20.57.868-6.162,1.648-13.539,1.648-16.317v-15.709H301.7v13.713h5.295l2.69-3.472a2.139,2.139,0,0,1,1.823-.955,3.986,3.986,0,0,1,2.17.869l6.6,5.12a1.548,1.548,0,0,1,.521,1.129c0,.954-1.736,2.6-2.951,3.819v28.554c0,1.909-4.079,3.992-6.944,3.992-1.3,0-3.471-.26-3.471-2.083v-35.064H301.7c0,13.019-5.9,29.51-13.973,37.755l-.781-.521a54.554,54.554,0,0,0,3.472-16.664c.173-2.083.954-15.622.954-16.577v-44.611l11.457.954c.607.087,1.475.348,1.475,1.3,0,1.041-.694,1.475-2.6,2.516v18.314h6.076v-23.7l11.717,1.476c.347.086,1.388.173,1.388,1.215s-.867,1.388-2.777,2.17v17.879l2.083-3.645a1.628,1.628,0,0,1,1.476-.782,3.77,3.77,0,0,1,1.475.608l3.471,3.124V-202.8l10.763,5.295h16.577l3.732-4.514c.434-.52.7-.868,1.389-.868.521,0,.607.087,1.476.7l6.075,3.992a1.668,1.668,0,0,1,.954,1.562c0,.868-.867,1.129-1.562,1.129H337.542v19.094H352.73l3.906-4.166a2.152,2.152,0,0,1,1.822-.955,3.178,3.178,0,0,1,1.823.782l6.51,6.075a1.849,1.849,0,0,1,.694,1.475c0,.521-1.389,1.736-2.951,3.125-4.166,14.928-7.985,21-10.155,24.389a52.73,52.73,0,0,0,13.366,11.369Zm-26.3-40.966a56.432,56.432,0,0,0,7.378,20.83c1.388-3.472,3.731-9.2,4.86-20.83Z" transform="translate(-106.829 204.292)" fill="#fff"/><path d="M441.259-173.316c.911-1.417,5.365-8.3,5.365-9.212,0-.1-.1-.708-1.012-.708-4.353,0-41.2,7.794-47.678,10.122-.911.3-5.365,2.835-6.478,2.835-3.644,0-11.135-11.034-11.135-15.994,0-.607.2-.911.708-.911.608,0,3.138,2.227,3.746,2.632a10.419,10.419,0,0,0,7.187,2.328c2.227,0,52.132-6.984,55.776-8.2.809-.3,4.15-2.835,4.96-2.835,4.049,0,12.147,11.439,12.147,14.071,0,2.024-1.619,2.024-4.657,2.125-1.113,0-1.518.1-4.048,2.329-19.436,17.512-20.954,18.828-27.331,23.282,3.34,4.049,6.377,9.718,6.377,14.779,0,6.074-4.353,7.086-6.377,7.086a4.724,4.724,0,0,1-3.847-1.721c-.911-1.113-2.835-8-3.341-9.515-3.745-10.325-10.325-19.638-20.448-23.788a38.435,38.435,0,0,1,24.8,10.122C433.566-162.789,437.109-166.939,441.259-173.316Z" transform="translate(-106.412 204.292)" fill="#fff"/><path d="M477.6-135.052c10.527-9.617,16.8-17.411,21.358-27.028,2.329-4.859,6.378-14.374,6.378-17.816,0-2.936-2.531-5.365-3.746-6.175-.3-.2-1.113-.708-1.113-1.214,0-.709,2.632-.709,3.746-.709,3.947,0,6.377.81,11.539,5.973,1.012,1.012,3.442,3.542,3.442,4.858,0,.912-.506,1.114-1.721,1.822-1.721.911-2.429,2.329-4.049,5.669-6.782,14.779-15.488,27.331-35.834,35.227ZM569.112-147.6c0,1.822,0,8.1-5.466,8.1-4.96,0-5.771-4.252-6.276-6.58-4.151-19.638-7.492-27.331-23.991-42.515C553.32-182.528,569.112-161.473,569.112-147.6Z" transform="translate(-105.968 204.292)" fill="#fff"/><path d="M602.015-165.825c6.377,0,37.555-1.822,44.641-2.126.91,0,5.162-1.316,6.175-1.316,3.036,0,10.325,4.859,10.325,8.705,0,1.519-1.721,2.734-3.846,2.734-1.215,0-3.543-.3-5.265-.506a139.862,139.862,0,0,0-16.8-1.519c-3.644,0-29.558,1.923-32.8,2.43-1.113.1-6.276,1.821-7.591,1.821s-10.326-3.036-11.035-16.6C588.855-169.267,592.3-165.825,602.015-165.825Z" transform="translate(-105.522 204.292)" fill="#fff"/><path d="M672.977-133.635c17.005-12.856,27.229-40.592,27.229-45.856,0-1.619-.4-3.341-3.847-6.377-.2-.2-.708-.608-.708-1.113s2.126-.709,3.341-.709c4.049,0,5.668.911,8.807,3.441.3.2,6.478,5.062,6.478,7.39,0,1.113-1.214,1.721-2.429,2.328-.81.507-2.328,4.454-2.734,5.163-10.426,19.233-18.018,29.052-35.53,36.543ZM765.093-147.2c0,5.467-3.847,7.9-6.175,7.9-4.758,0-5.669-5.365-6.681-11.439-1.924-10.831-7.289-22.472-23.181-37.453C747.378-184.249,765.093-160.663,765.093-147.2Zm-1.923-36.846a3.6,3.6,0,0,1-3.239,3.442c-2.329,0-3.746-2.531-4.758-4.252-4.353-7.693-8.4-9.718-10.731-10.831C753.654-196.092,763.17-190.828,763.17-184.046Zm-7.188-20.246c8.6,0,16.4,5.366,16.4,10.123,0,1.418-1.012,3.645-3.138,3.645-1.518,0-2.328-.912-3.441-2.43-3.443-4.758-5.467-7.187-13.97-10.933A25.113,25.113,0,0,1,755.982-204.292Z" transform="translate(-105.073 204.292)" fill="#fff"/><path d="M797.591-165.825c6.377,0,37.555-1.822,44.641-2.126.911,0,5.163-1.316,6.175-1.316,3.036,0,10.325,4.859,10.325,8.705,0,1.519-1.721,2.734-3.846,2.734-1.215,0-3.543-.3-5.265-.506a139.862,139.862,0,0,0-16.8-1.519c-3.644,0-29.558,1.923-32.8,2.43-1.114.1-6.277,1.821-7.592,1.821S782.1-158.638,781.4-172.2C784.432-169.267,787.873-165.825,797.591-165.825Z" transform="translate(-104.664 204.292)" fill="#fff"/><path d="M884.648-123.513c8.2-3.137,19.943-9.211,27.636-20.65a86.413,86.413,0,0,0,11.945-27.129.533.533,0,0,0-.608-.607c-.708,0-27.229,2.936-35.126,7.086-3.036,1.519-3.34,1.721-4.149,1.721-1.924,0-11.237-5.77-11.237-12.451,0-.607,0-1.519.81-1.519a3.167,3.167,0,0,1,1.113.811c1.215,1.012,3.341,2.935,8.605,2.935,7.187,0,39.58-3.948,40.895-4.555.608-.3,2.632-2.328,3.138-2.632a2.974,2.974,0,0,1,1.924-.709c3.037,0,10.629,6.782,10.629,9.516,0,1.821-1.317,2.429-3.543,3.644-1.924.911-2.532,2.024-3.341,3.846-12.755,31.178-30.469,39.985-48.691,41.706Zm2.33-71.162a17.262,17.262,0,0,0,5.871,1.215c5.971,0,22.573-.81,25.205-2.834.3-.2,1.518-1.316,1.822-1.62a2.042,2.042,0,0,1,1.417-.506c2.53,0,10.021,2.733,10.021,6.883,0,2.834-2.834,2.936-8.2,3.138-2.024,0-25,2.835-26.927,3.442a23.608,23.608,0,0,1-2.53.708c-2.328,0-11.641-6.377-11.641-12.045,0-.1,0-.608.1-.709C882.32-197.206,886.167-194.979,886.978-194.675Z" transform="translate(-103.94 204.292)" fill="#fff"/><path d="M954.6-125.638a73.077,73.077,0,0,0,39.478-29.356,42.759,42.759,0,0,0-13.564-12.653c-6.377,6.478-14.678,10.628-23.283,13.564l-.4-.81c14.476-9.414,28.242-32.9,28.242-39.174a7.9,7.9,0,0,0-.911-2.734c-.2-.4-1.822-2.328-1.822-2.733,0-.911.81-1.012,1.417-1.012,5.265,0,8.706,3.644,10.528,5.567,1.012,1.114,3.847,4.252,3.847,5.771,0,.4-.1.708-1.215,1.315-.405.3-2.024,1.114-2.227,1.316.81.1,4.859.2,5.668.2,1.317,0,6.479-.809,7.592-1.518,3.949-2.733,4.353-3.037,5.669-3.037,2.025,0,4.454,2.531,5.973,4.05s4.352,4.352,4.352,5.77c0,.911-.405,1.316-4.048,3.543-1.823,1.214-2.025,1.619-3.443,5.263a74.793,74.793,0,0,1-9.414,17.209c1.924,2.834,3.543,7.187,3.543,9.515,0,1.013-.809,5.365-4.251,5.365-3.847,0-5.061-2.227-6.985-5.669-8.4,9.009-24.092,20.55-44.742,21.055Zm53.043-54.46c0-.608-.3-.81-.81-.81-1.417,0-7.795,1.114-9.312,1.114-1.823,0-3.543-1.215-5.669-2.734a112.539,112.539,0,0,1-9.82,13.261c5.365.911,12.148,4.049,16.906,6.985C1003.492-169.976,1007.643-178.58,1007.643-180.1Z" transform="translate(-103.94 204.292)" fill="#fff"/></g><g transform="translate(109.358 -258.208)"><path d="M141.912-246.523h-4.79v11.7c0,1.8-2.917,2.089-3.241,2.089-1.224,0-1.224-.72-1.224-1.188V-235.4h-4.5v3.241c0,1.3-2.448,1.8-3.421,1.8-.9,0-1.26-.541-1.26-1.333v-14.836h-4.285v18.077h16.349l2.052-2.449c.181-.215.252-.36.577-.36a1.021,1.021,0,0,1,.647.324l2.414,2.125a1.1,1.1,0,0,1,.359.648c0,.36-.323.505-.648.505h-21.75v1.08c0,1.3-3.277,1.728-3.673,1.728-1.009,0-1.009-.756-1.009-1.656v-20.022H109.79l-.432-.829h5.149v-9.686l5.042.54c.288.036.684.108.684.468,0,.54-.612.792-1.044.972v7.706h4.285v-9.758l4.79.576c.54.072.864.252.864.648,0,.576-.649.684-.973.72v7.814h4.5v-9.614l4.681.612c.288.036.865.216.865.648,0,.576-.793.792-1.081.864v7.131l1.621-1.837c.216-.252.288-.36.576-.36.252,0,.36.108.648.324l2.233,1.908a.727.727,0,0,1,.324.649C142.524-246.667,142.236-246.523,141.912-246.523Zm-9.255,0h-4.5v10.3h4.5Z" transform="translate(-109.358 258.587)" fill="#fff"/><path d="M178.034-232.623c-.072.54-.072.576-.144.576a15.437,15.437,0,0,1-6.77-3.637v9.038c0,1.477-2.124,1.874-3.385,1.874-1.116,0-1.224-.325-1.224-.865v-13l1.837.18a17.6,17.6,0,0,1-3.061-4.9H164.1a17.273,17.273,0,0,1-4.177,4.825l1.909.324c.359.072.756.216.756.648,0,.469-.145.505-1.225,1.009-.288,3.1-1.044,9.687-11.163,11.955l-.18-.36c5.8-3.025,6.194-7.454,6.482-11.091a22.261,22.261,0,0,1-9,3.493l-.144-.36a20.951,20.951,0,0,0,10.263-10.443h-1.548v.612c0,1.332-3.781,1.62-3.889,1.62a.854.854,0,0,1-.937-.972v-15.593l5.078,2.125H172.2l1.152-1.368a1.215,1.215,0,0,1,1.044-.541,1.757,1.757,0,0,1,.9.361l2.521,1.836a.966.966,0,0,1,.5.829c0,.684-.54,1.044-1.188,1.44v9.327c0,1.44-2.448,2.34-3.637,2.34-1.116,0-1.116-.576-1.116-1.224v-.792h-5.474c1.584,2.088,6.158,5.618,13.54,6.41v.36A5.061,5.061,0,0,0,178.034-232.623ZM161.865-254.77h-5.8v4.718h5.8Zm0,5.546h-5.8v4.933h5.8Zm10.516-5.546h-5.222c-.036.468-.144.685-.828.829v3.889h6.05Zm0,5.546h-6.05v4.933h6.05Z" transform="translate(-109.358 258.587)" fill="#fff"/><path d="M218.01-242.526H203.39c0,.36-.072.72-.828,1.045v1.98h8.966l1.08-1.369a1.2,1.2,0,0,1,1.081-.468,1.479,1.479,0,0,1,1.008.4l2.413,2.3a.939.939,0,0,1,.324.613c0,.359-.36.5-1.548.972a35.206,35.206,0,0,1-3.6,5.725,18.977,18.977,0,0,0,6.2,1.765l.107.324a5.085,5.085,0,0,0-2.484,3.529c-.037.288-.073.612-.361.612a1.381,1.381,0,0,1-.54-.18,18.32,18.32,0,0,1-5.653-3.277,15.732,15.732,0,0,1-7.959,3.241,4.266,4.266,0,0,1-2.16.648c-1.189,0-1.189-.612-1.189-1.3v-4.9c-1.3.684-7.814,3.672-9.219,4.429-.144.612-.251.936-.612.936-.216,0-.4-.108-.576-.576l-1.62-4.574c1.188-.144,2.845-.324,3.493-.4v-11.487h-3.6l-.432-.792h27.476l1.657-2.341a.687.687,0,0,1,.576-.36c.252,0,.4.144.648.36l2.269,1.981a.984.984,0,0,1,.36.648C218.658-242.634,218.334-242.526,218.01-242.526Zm-4.141-10.983v6.554c0,.576,0,.864-.9,1.368a5.345,5.345,0,0,1-2.377.684c-.792,0-1.26-.4-1.26-1.008v-.684h-13.9v.648c0,.864-2.161,1.728-3.566,1.728-.972,0-1.008-.756-1.008-1.224V-257.65l4.789,1.8H209.26l1.116-1.441a.966.966,0,0,1,.792-.359,1.338,1.338,0,0,1,.792.288l2.593,1.872a.725.725,0,0,1,.36.612C214.913-254.481,214.8-254.374,213.869-253.509ZM198.24-242.526h-3.1c.071.576-.5.9-.973,1.116v1.981h4.069Zm0,3.889h-4.069v3.1h4.069Zm0,3.889h-4.069v3.205c1.476-.18,2.593-.288,4.069-.468Zm11.092-20.273h-13.9v3.384h13.9Zm0,4.176h-13.9v3.422h13.9Zm-5.618,12.136h-1.152v11.92a19.9,19.9,0,0,0,4.861-3.745C205.082-232.983,204.29-235.108,203.714-238.709Zm1.3,0a11.42,11.42,0,0,0,4.285,5.582,19.789,19.789,0,0,0,2.2-5.582Z" transform="translate(-109.358 258.587)" fill="#fff"/><path d="M253.629-225.853c-.288,1.116-.324,1.224-.793,1.224a19.214,19.214,0,0,1-4.357-1.332,16.045,16.045,0,0,1-6.518-4.718c-5.69,2.7-9,4.07-13.756,5.978-.432.648-.576.865-.936.865a.691.691,0,0,1-.5-.433l-1.873-5.473c1.945,0,3.205-.036,5.114-.18v-9.327h-5.942l-.432-.828h6.374v-17.285l4.861,2.341h11.739l2.2-2.233a.74.74,0,0,1,.576-.325,1.259,1.259,0,0,1,.684.325l2.557,1.944a.933.933,0,0,1,.324.612c0,.361-.324.505-.612.505H234.579v4.141h11.055l1.837-2.341a.733.733,0,0,1,.576-.324,1.072,1.072,0,0,1,.648.288l2.377,2.089a.732.732,0,0,1,.324.612c0,.36-.324.468-.612.468H234.579v4.141h11.379l1.765-2.269a.8.8,0,0,1,.576-.323,1.107,1.107,0,0,1,.684.323l2.341,1.981a.753.753,0,0,1,.324.612c0,.36-.288.5-.612.5H234.579v4.214h15.736l1.945-2.377a.8.8,0,0,1,.613-.324,1.019,1.019,0,0,1,.648.324l2.521,2.089a.752.752,0,0,1,.323.648c0,.36-.36.468-.612.468h-6.445l3.672,2.413c.252.144.325.288.325.432,0,.576-.613.576-.9.576a4.277,4.277,0,0,1-.9-.072c-.288.18-.54.324-2.881,1.656-.9.505-2.376,1.225-3.565,1.837a26.507,26.507,0,0,0,11.631,3.349v.36A4.287,4.287,0,0,0,253.629-225.853Zm-16.241-13.4h-2.809v8.823c3.313-.288,3.673-.324,6.986-.72A25.723,25.723,0,0,1,237.388-239.249Zm1.3,0a15.874,15.874,0,0,0,5.438,6.23,23.774,23.774,0,0,0,2.989-6.23Z" transform="translate(-109.358 258.587)" fill="#fff"/><path d="M276.535-228.554c2.485-.432,11.6-2.881,11.6-13.54,0-8.427-7.382-9.579-9.831-9.579a10.778,10.778,0,0,0-1.512.109,3.548,3.548,0,0,1,1.152,2.664c0,1.873-1.476,11.128-7.274,17.141-1.008,1.045-2.053,2.125-3.169,2.125a1.844,1.844,0,0,1-1.836-1.837c-.181-1.3-.252-1.764-.793-2.341-1.368-1.368-1.944-1.98-1.944-4.609,0-6.95,6.05-14.692,15.881-14.692,9.038,0,13.431,6.194,13.431,12.856,0,11.811-13.611,12.028-14.08,12.028a10.1,10.1,0,0,1-1.62-.109Zm-10.011-10.731c0,.252.072,4.249,1.548,4.249,2.665,0,7.707-9.831,7.707-14.584a8.289,8.289,0,0,0-.217-1.692C269.549-249.728,266.524-243.858,266.524-239.285Z" transform="translate(-108.717 258.587)" fill="#fff"/><path d="M316.007-240.257h-5.114v12.028c0,1.44-.18,3.564-4.033,3.564-.648,0-1.081-.036-1.081-.54a3.588,3.588,0,0,0-.179-1.692c-.469-1.044-2.845-1.441-4.358-1.693l.072-.36c1.369.144,3.025.18,3.565.18,1.009,0,1.693,0,1.693-1.548V-236.8c-.252.576-1.081.792-1.549.864a21.779,21.779,0,0,1-6.734,8l-.216-.288c1.729-2.666,2.593-6.411,2.917-10.66l5.077,1.513c.325.107.433.18.505.324v-3.205h-7.85l-.433-.793h8.283v-5.221h-2.7a29.856,29.856,0,0,1-5.906,4.681l-.252-.288c3.2-3.2,5.51-7.994,6.842-15.376l6.014,1.44a.559.559,0,0,1,.468.576.889.889,0,0,1-.576.828c2.989.181,5.546,1.513,5.546,4.141a1.95,1.95,0,0,1-1.981,2.089,1.887,1.887,0,0,1-2.125-1.764c-.288-1.4-.792-2.3-2.773-3.745a26.007,26.007,0,0,1-4.5,6.626h5.4l1.26-1.369c.18-.216.288-.36.576-.36.144,0,.217,0,.685.324l1.656,1.116a.7.7,0,0,1,.324.613c0,.36-.324.468-.612.468h-2.053a2.3,2.3,0,0,1,.109.432c0,.648-.649.864-1.081,1.008v3.781h.972l1.116-1.656a.667.667,0,0,1,.577-.36c.144,0,.216,0,.684.324l2.053,1.4a.709.709,0,0,1,.324.612C316.619-240.365,316.259-240.257,316.007-240.257Zm-1.189,9.111c-1.548,0-1.62-.973-1.8-3.386a7.924,7.924,0,0,0-1.837-3.853l.252-.324c1.729.5,5.69,1.621,5.69,5.006A2.345,2.345,0,0,1,314.818-231.146Zm16.781,2.268a4.477,4.477,0,0,0-3.349,3.133c-.108.54-.252.684-.54.684-1.044,0-4.789-3.961-6.05-6.626a38.881,38.881,0,0,1-10.155,6.446l-.18-.324a37.763,37.763,0,0,0,8.895-8.535c-2.377-5.293-2.845-9.578-2.737-18.8h-1.909l-.431-.792h9.686l1.189-1.153a1.577,1.577,0,0,1,1.08-.612,1.954,1.954,0,0,1,1.188.576l2.269,1.8a1.072,1.072,0,0,1,.5.828c0,.468-.144.576-1.224,1.549-.576,4.717-1.657,11.2-5.474,16.133a18.328,18.328,0,0,0,7.274,5.329ZM318.743-252.9c-.035,7.886,2.053,13.36,3.529,15.269,2.089-4.79,2.593-10.048,2.665-15.269Z" transform="translate(-108.567 258.587)" fill="#fff"/><path d="M368.91-236.729H364.8v4.322c0,1.585-2.3,2.016-3.529,2.016-.9,0-.9-.467-.9-.972v-1.188h-5.114v5.15c0,1.044,0,2.88-4.393,2.88-1.62,0-1.62-.108-1.873-1.656a2.33,2.33,0,0,0-1.98-1.909c-2.089-.5-2.341-.612-2.629-.684v-.36c.648.036,3.637.216,4.717.216,1.261,0,1.513,0,1.513-.9v-2.737H339.742l-.432-.828h11.307v-3.35H336.861l-.432-.792h14.188v-3.205H340.21l-.433-.792h10.84v-2.628h-4.97c0,.648,0,.972-.648,1.368a4.321,4.321,0,0,1-2.7.612c-1.008,0-1.008-.324-1.008-.864v-8.1l4.321,1.3h5.006v-2.413h-13.18l-.432-.792h13.612v-4.43l4.862.361c.576.036.755.215.755.576,0,.324-.071.4-.972.936v2.557h6.7l1.945-2.341c.18-.216.288-.36.612-.36.252,0,.4.144.648.324l2.7,2.053a.941.941,0,0,1,.36.648c0,.36-.324.468-.648.468H355.262v2.413h4.573l1.513-1.4a1.372,1.372,0,0,1,.72-.36,1.082,1.082,0,0,1,.648.289l2.449,1.872a.671.671,0,0,1,.252.576c0,.4-.108.468-1.152,1.26v3.062c0,.576,0,.864-.828,1.152l2.34,1.836c.073.073.325.288.325.5,0,.324-.433.649-1.3,1.4v2.124l1.368-2.2a.716.716,0,0,1,.577-.324.938.938,0,0,1,.648.324l1.8,1.872a.944.944,0,0,1,.324.649C369.522-236.836,369.2-236.729,368.91-236.729Zm-18.293-12.315h-4.97v4.106h4.97Zm9.255,0h-4.61v4.106h4.61Zm.648,6.122c-.648,0-.648-.4-.648-1.224h-4.61v2.628h5.006l1.332-1.548A10.1,10.1,0,0,1,360.52-242.922Zm-.144,2.2h-5.114v3.205h5.114Zm0,4h-5.114v3.35h5.114Z" transform="translate(-108.406 258.587)" fill="#fff"/><path d="M388.4-249.98h-13.5l-.432-.829h8.679l1.62-1.98c.18-.216.288-.36.576-.36.18,0,.324.108.685.36l2.664,1.692a.82.82,0,0,1,.324.649C389.008-250.124,388.648-249.98,388.4-249.98Zm18.582,9.867h-4.394v12.027a2.869,2.869,0,0,1-.864,2.3,5.349,5.349,0,0,1-3.457,1.188c-1.261,0-1.261-.216-1.261-.648,0-1.476,0-1.981-.648-2.521-.468-.36-.54-.4-3.961-1.224l.072-.4c.792.072,1.909.072,2.7.072,1.08,0,2.521.18,2.521-1.152v-9.651H385.623l-.432-.792h12.5v-5.006H375.864l-.432-.828h6.878l1.477-1.873a.751.751,0,0,1,.612-.324,1.233,1.233,0,0,1,.648.324l2.233,1.621a.484.484,0,0,1,.216.252h6.193v-5.474h-5.8l-.432-.792h6.229v-4.537l5.114.468c.468.036.792.108.792.612,0,.612-.684.828-1.26.972v2.485h2.52l1.549-1.8c.18-.215.288-.36.576-.36.216,0,.216.036.648.324l2.305,1.549a1.006,1.006,0,0,1,.324.612c0,.36-.324.468-.612.468h-7.31v5.474h3.673l1.657-2.017a.714.714,0,0,1,.576-.36c.252,0,.4.144.612.324l2.232,1.729a.748.748,0,0,1,.325.684c0,.36-.325.468-.613.468h-3.349c0,.648-.252.828-.864,1.188v3.818h.108l1.4-1.729c.18-.216.288-.36.576-.36.216,0,.324.072.648.324l1.945,1.477a.764.764,0,0,1,.324.611C407.59-240.221,407.3-240.113,406.978-240.113Zm-20.311-1.657h-10.7l-.432-.828h6.626l1.44-1.656a.733.733,0,0,1,.577-.325c.18,0,.216,0,.648.288l2.125,1.441a.792.792,0,0,1,.324.576C387.28-241.914,386.956-241.77,386.667-241.77Zm-.5-12.352H376.08l-.432-.792h5.8l1.584-1.944c.18-.216.288-.36.576-.36.181,0,.325.072.649.323l2.2,1.657a.9.9,0,0,1,.324.648C386.775-254.229,386.451-254.122,386.163-254.122Zm.721,18.618v6.914c0,.72,0,1.08-1.369,1.621a4.177,4.177,0,0,1-1.765.323c-.864,0-.9-.431-.9-.755v-1.225h-2.7v1.98c0,.577-.036.865-.972,1.333a6.72,6.72,0,0,1-2.268.576c-.613,0-.937-.252-.937-1.3v-14.188l4.214,2.052h2.556l1.116-1.44a.956.956,0,0,1,.793-.324.963.963,0,0,1,.612.252l2.125,1.692a1.39,1.39,0,0,1,.468.972C387.856-236.656,387.748-236.44,386.884-235.5Zm-4.033-1.836h-2.7v7.886h2.7Zm10.226,6.049c-1.584,0-1.656-.72-1.8-2.448a5.615,5.615,0,0,0-3.133-4.538l.144-.36c4.861-.36,7.742,1.945,7.742,4.789C396.03-231.363,393.33-231.291,393.077-231.291Z" transform="translate(-108.246 258.587)" fill="#fff"/><path d="M430.424-243.426a5.316,5.316,0,0,0-1.332,3.24c.72-.288,3.889-1.512,4.537-1.8.144-.036,1.152-.468,1.152-1.152a1.091,1.091,0,0,0-.468-.793c-.144-.108-.288-.215-.288-.323,0-.217.432-.253.612-.253,2.053,0,4.394,1.837,4.394,3.89,0,.936-1.009.936-1.369.936a19.741,19.741,0,0,0-8.642,1.548c0,.432-.037,1.045,0,2.017.036.468.18,2.593.18,3.025a2.017,2.017,0,0,1-1.693,2.124,2.276,2.276,0,0,1-1.981-2.268c0-.54.325-2.953.361-3.457-3.493,1.837-4.934,3.277-4.934,4.9,0,2.485,2.629,3.061,5.294,3.061,1.62,0,1.944-.108,6.374-.936a3.664,3.664,0,0,1,.828-.072c1.153,0,2.7.9,2.7,1.909a1.762,1.762,0,0,1-.972,1.476c-1.261.576-5.546.72-7.023.72-6.446,0-8.714-2.629-8.714-5.042,0-2.844,1.692-5.329,6.446-7.922-.144-1.728-.576-3.781-2.629-3.781-3.025,0-4.969,4.61-5.51,5.942-.288.72-.576,1.476-1.512,1.476-.972,0-1.621-.684-1.621-2.2,0-1.981.613-2.485,1.3-3.061,1.512-1.26,2.484-2.989,4.285-6.518a20.377,20.377,0,0,1-2.233.144,4.2,4.2,0,0,1-4.357-2.881c0-.072.036-.216.144-.216s.5.36.612.4a4.887,4.887,0,0,0,2.665.648,21.624,21.624,0,0,0,4.465-.864c.361-.72,1.837-4.177,1.837-5.474a1.638,1.638,0,0,0-1.332-1.62c-.217-.036-.325-.072-.325-.252,0-.433,1.009-.577,1.477-.577,2.088,0,4.429,2.089,4.429,3.278,0,.5-.252.684-.792,1.152-.468.36-.684.756-1.549,2.233a11.162,11.162,0,0,0,3.422-1.8,2.364,2.364,0,0,1,1.224-.288c1.152,0,2.629.756,2.629,1.693,0,.468-.288.864-1.189,1.3a37.528,37.528,0,0,1-8.03,2.664c-.324.649-1.981,3.6-2.2,4.214a8.1,8.1,0,0,1,3.781-1.513c1.189,0,2.017.612,3.565,2.593.217-.144,1.117-1.044,1.333-1.224a2.116,2.116,0,0,1,.576-.36Z" transform="translate(-108.093 258.587)" fill="#fff"/><path d="M463.2-248.252a1.746,1.746,0,0,0,.576-1.152c0-.288-.072-.4-.576-.9-.324-.324-.36-.361-.36-.468,0-.181.216-.216.324-.216,3.241,0,5.546,3.457,5.546,4.321,0,.5-.721.576-1.333.648a4.485,4.485,0,0,0-.756.252c-10.155,4.465-10.407,4.574-14.62,5.258-.037,1.3-.145,6.518.54,7.526,1.044,1.476,2.448,1.548,4.177,1.548a37.414,37.414,0,0,0,8.823-1.26,3.558,3.558,0,0,1,1.692-.324c.612,0,3.349.684,3.349,2.3,0,.36,0,.72-1.872,1.476-1.873.792-5.69.828-7.131.828-5.545,0-9.327-.4-11.055-1.981-1.585-1.476-1.585-5.581-1.585-8.894,0-.864.073-4.754.073-5.546,0-1.656,0-6.77-.937-7.778a4.843,4.843,0,0,0-1.692-1.188.239.239,0,0,1-.144-.181c0-.251.9-.54,1.764-.54,2.773,0,5.474,1.909,5.474,3.025a2.014,2.014,0,0,1-.36,1.009c-.72,1.44-1.009,6.841-1.08,8.714C459.165-244.542,461.289-246.127,463.2-248.252Zm11.127-4.393a2.981,2.981,0,0,1-2.989,2.989,3.052,3.052,0,0,1-3.1-2.989,3.175,3.175,0,0,1,3.241-3.1A3,3,0,0,1,474.325-252.645Zm-5.293,0a2.245,2.245,0,0,0,2.3,2.161,2.144,2.144,0,0,0,2.161-2.161,2.184,2.184,0,0,0-2.017-2.269A2.367,2.367,0,0,0,469.032-252.645Z" transform="translate(-107.953 258.587)" fill="#fff"/><path d="M483.908-242.058c2.268,0,13.36-.648,15.881-.756.323,0,1.836-.468,2.2-.468,1.08,0,3.673,1.728,3.673,3.1,0,.541-.612.973-1.368.973-.433,0-1.261-.108-1.873-.18a49.81,49.81,0,0,0-5.978-.54c-1.3,0-10.515.684-11.667.864-.4.036-2.233.648-2.7.648s-3.673-1.08-3.925-5.906C479.227-243.282,480.451-242.058,483.908-242.058Z" transform="translate(-107.821 258.587)" fill="#fff"/><path d="M510.379-227.762a25.994,25.994,0,0,0,14.044-10.443,15.211,15.211,0,0,0-4.825-4.5,20.86,20.86,0,0,1-8.283,4.825l-.144-.288c5.15-3.349,10.047-11.7,10.047-13.936a2.808,2.808,0,0,0-.324-.972,7.6,7.6,0,0,1-.648-.972c0-.325.288-.361.5-.361a5.218,5.218,0,0,1,3.745,1.981c.36.4,1.368,1.512,1.368,2.053,0,.144-.035.252-.431.468-.145.108-.721.4-.793.468.288.036,1.729.072,2.017.072a9.723,9.723,0,0,0,2.7-.54c1.4-.972,1.549-1.08,2.017-1.08.72,0,1.585.9,2.125,1.44s1.548,1.548,1.548,2.052c0,.325-.144.469-1.44,1.261-.648.432-.72.576-1.225,1.873a26.614,26.614,0,0,1-3.349,6.121,7.571,7.571,0,0,1,1.261,3.386c0,.359-.288,1.908-1.513,1.908-1.368,0-1.8-.792-2.484-2.017-2.989,3.205-8.571,7.311-15.917,7.49Zm18.87-19.373c0-.217-.108-.288-.289-.288-.5,0-2.773.4-3.313.4a3.832,3.832,0,0,1-2.016-.973,40.009,40.009,0,0,1-3.493,4.718,18.982,18.982,0,0,1,6.013,2.485C527.772-243.534,529.249-246.6,529.249-247.135Z" transform="translate(-107.692 258.587)" fill="#fff"/><path d="M546.934-242.058c2.268,0,13.359-.648,15.88-.756.325,0,1.837-.468,2.2-.468,1.08,0,3.673,1.728,3.673,3.1,0,.541-.612.973-1.369.973-.431,0-1.26-.108-1.872-.18a49.791,49.791,0,0,0-5.978-.54c-1.3,0-10.515.684-11.667.864-.4.036-2.233.648-2.7.648s-3.673-1.08-3.925-5.906C542.252-243.282,543.477-242.058,546.934-242.058Z" transform="translate(-107.558 258.587)" fill="#fff"/><path d="M583.2-240.978a3.5,3.5,0,0,1-3.493,3.494,3.474,3.474,0,0,1-3.493-3.494,3.5,3.5,0,0,1,3.493-3.493A3.5,3.5,0,0,1,583.2-240.978Z" transform="translate(-107.457 258.587)" fill="#fff"/><path d="M594.437-227.005c6.158-2.377,11.2-6.482,14.188-14.476a32.554,32.554,0,0,0,1.729-6.735c0-.216-.109-.36-.541-.36a91.824,91.824,0,0,0-11.919,2.341,10.967,10.967,0,0,1-1.261.468,5.586,5.586,0,0,1-4.033-5.186c0-.468.036-.576.18-.576s.54.612.649.72a3.309,3.309,0,0,0,2.628,1.225c1.873,0,14.333-1.225,15.269-1.728.18-.109.828-.613.972-.685a1.335,1.335,0,0,1,.54-.144c1.152,0,3.817,2.917,3.817,3.493,0,.5-.143.576-1.476,1.369a3.057,3.057,0,0,0-1.189,1.944c-3.421,11.056-8.858,17.682-19.553,18.618Zm24.523-25.532c0,.792-.468,1.3-1.009,1.3-.756,0-1.187-.684-1.548-1.332a11.692,11.692,0,0,0-3.924-3.673C615.791-256.39,618.96-254.445,618.96-252.537Zm-2.809-6.05c1.836,0,5.906,1.116,5.906,3.313,0,.793-.4,1.189-1.117,1.189-.54,0-1.116-.648-1.368-1.009-1.26-1.548-1.476-1.836-4.573-3.385A5.218,5.218,0,0,1,616.151-258.587Z" transform="translate(-107.34 258.587)" fill="#fff"/><path d="M625.267-228.122c6.914-5.041,7.994-11.775,7.994-17,0-1.224,0-3.889-.72-4.573-.217-.18-1.44-.756-1.44-1.008,0-.4,1.8-.505,2.051-.505,2.27,0,4.97,2.341,4.97,2.773,0,.252-.828,1.009-.864,1.189-.144.468-.5,4.645-.612,5.509a15.767,15.767,0,0,1-6.518,11.668,13.937,13.937,0,0,1-4.682,2.268ZM658-243.606c-2.953,6.481-9.867,10.767-11.6,11.775a3.146,3.146,0,0,0-1.259,1.117c-.613,1.044-.685,1.152-1.153,1.152-1.4,0-3.961-4.141-3.961-4.862a8.06,8.06,0,0,1,.5-1.3c.361-1.332.361-7.454.361-9.183a38.575,38.575,0,0,0-.253-5.942,2.378,2.378,0,0,0-1.08-1.44c-.18-.108-1.189-.5-1.189-.72,0-.5,1.045-.828,1.837-.828,2.053,0,5.33,2.016,5.33,3.061a7.9,7.9,0,0,1-.612,1.224c-.433,1.008-.829,6.914-.829,11.6,0,2.341,0,2.629.936,2.629,3.026,0,10.119-5.546,12.82-8.39Z" transform="translate(-107.195 258.587)" fill="#fff"/><path d="M668.41-240.437a1.3,1.3,0,0,1-1.224,1.44,1.583,1.583,0,0,1-1.584-1.044,11.665,11.665,0,0,0-3.242-4.826C665.422-244.579,668.41-242.454,668.41-240.437Zm-2.016,13.648c10.3-4.069,13.288-15.053,13.288-18.042,0-.936-.145-1.116-1.3-2.448,4.286.216,5.474,3.025,5.474,3.313,0,.323-.18.432-.684.792-.216.144-.4.4-.721,1.548a24.319,24.319,0,0,1-4.933,9.435c-4.322,4.321-7.058,5.438-11.055,5.69Zm7.922-15.341a1.313,1.313,0,0,1-1.224,1.477,1.654,1.654,0,0,1-1.585-1.045,11.4,11.4,0,0,0-3.24-4.861C671.327-246.235,674.316-244.11,674.316-242.13Z" transform="translate(-107.069 258.587)" fill="#fff"/><path d="M691.316-227.689c6.122-2.377,11.236-6.05,14.729-12.424a24.437,24.437,0,0,0,2.485-6.338c0-.216-.108-.288-.253-.288-.107,0-2.952.612-3.492.684a9.686,9.686,0,0,1-1.549.144,3.4,3.4,0,0,1-2.16-.828c-2.269,3.565-7.6,7.85-11.416,8.678l-.107-.251c7.166-4.9,9.9-13.252,9.9-14.369a1.514,1.514,0,0,0-.432-1.08c-.036-.036-.576-.541-.576-.576,0-.253.54-.253.684-.253,2.808,0,5.51,2.161,5.51,3.422,0,.4-.361.54-1.008.828-.721.288-.793.4-1.441,1.656a4.452,4.452,0,0,0,1.657.36,13.875,13.875,0,0,0,5.221-1.584c1.153-.864,1.3-.937,1.584-.937.685,0,1.549.793,2.917,2.089.973.937,1.117,1.045,1.117,1.477,0,.72-.4.9-1.693,1.44a7.75,7.75,0,0,0-.756,1.368c-6.158,12.856-13.252,16.421-20.886,17.141Z" transform="translate(-106.947 258.587)" fill="#fff"/><path d="M725.026-229.454c-.143.972-.252,1.476-.828,1.476-.36,0-.576-.324-.756-.72l-2.3-5.51c1.548-.5,2.2-.72,3.169-1.116v-20.13l5.149.5a.7.7,0,0,1,.648.648c0,.217-.108.324-1.081,1.153V-237.2c4.539-1.909,8.967-3.926,13.361-6.122l.216.288C739.431-239.573,733.2-235.036,725.026-229.454Zm25.928,3.709c-2.232,0-2.52-2.269-2.593-2.989-.215-2.737-.288-3.205-1.44-4.393a13.97,13.97,0,0,1-3.241,3.421c-4.933,3.961-14.044,4.177-16.889,4.177v-.36c11.2-1.909,16.6-6.77,18.294-15.413.684-3.457.684-7.85.647-15.16l5.258.576a.857.857,0,0,1,.864.792c0,.5-.288.72-1.295,1.4.071,6.914.143,13.576-2.629,18.869,4.069,1.585,5.545,4,5.545,6.23A2.56,2.56,0,0,1,750.954-225.745Zm-12.891-20.742c-2.233,0-2.593-1.873-2.809-3.241-.576-3.385-1.152-5.906-4.609-7.094v-.361a10.183,10.183,0,0,1,1.295-.071c4.539,0,9.183,3.349,9.183,7.346A3.1,3.1,0,0,1,738.063-246.487Z" transform="translate(-106.794 258.587)" fill="#fff"/><path d="M791.29-240.329H778.218c1.656,3.637,6.229,7.346,13.54,9v.36a4.683,4.683,0,0,0-3.1,3.745c-.181.865-.181.973-.4.973-1.08,0-8.21-4.285-10.7-12.172v12.172c0,1.656-2.917,1.873-3.169,1.873-1.223,0-1.44-.649-1.44-1.189v-10.227a29.762,29.762,0,0,1-14.4,9.471l-.18-.36a32.314,32.314,0,0,0,11.56-13.648h-10.8l-.432-.793h14.26v-10.551H760.933l-.432-.828H772.96v-5.078l5.33.433a.6.6,0,0,1,.648.612c0,.4-.108.612-1.369,1.224v2.809h6.591l1.908-2.232c.18-.217.288-.361.577-.361.251,0,.36.108.648.324l2.52,1.981a.866.866,0,0,1,.325.612c0,.36-.288.5-.613.5H777.569v10.551h.937a32.256,32.256,0,0,0,2.484-9.29l5.8,1.836c.324.108.576.288.576.648,0,.72-.54.72-1.475.72-.866.865-5.078,5.186-6.122,6.086h5.8l2.088-2.448a.651.651,0,0,1,.577-.325c.251,0,.36.109.648.325l2.737,2.16a.889.889,0,0,1,.288.577C791.9-240.474,791.65-240.329,791.29-240.329Zm-22.615-1.585a1.99,1.99,0,0,1-2.2-2.16c-.145-4-2.521-5.618-3.278-6.014l.109-.4c4.861,0,7.958,2.953,7.958,5.221C771.268-243.57,770.26-241.914,768.675-241.914Z" transform="translate(-106.635 258.587)" fill="#fff"/><path d="M811.6-228.554c2.485-.432,11.595-2.881,11.595-13.54,0-8.427-7.382-9.579-9.831-9.579a10.81,10.81,0,0,0-1.513.109,3.546,3.546,0,0,1,1.153,2.664c0,1.873-1.477,11.128-7.274,17.141-1.008,1.045-2.052,2.125-3.169,2.125a1.844,1.844,0,0,1-1.836-1.837c-.18-1.3-.252-1.764-.792-2.341-1.369-1.368-1.945-1.98-1.945-4.609,0-6.95,6.049-14.692,15.88-14.692,9.039,0,13.433,6.194,13.433,12.856,0,11.811-13.613,12.028-14.08,12.028a10.1,10.1,0,0,1-1.621-.109Zm-10.011-10.731c0,.252.072,4.249,1.549,4.249,2.664,0,7.706-9.831,7.706-14.584a8.431,8.431,0,0,0-.216-1.692C804.617-249.728,801.593-243.858,801.593-239.285Z" transform="translate(-106.482 258.587)" fill="#fff"/><path d="M864.615-241.193c-.143.828-.179,1.007-.576,1.007s-2.845-.792-5.869-3.492c-.036.324-.36.4-.612.4h-4.61a.86.86,0,0,1,.072.324c0,.288-.18.432-.756.792v6.194h3.781l1.98-2.449a.638.638,0,0,1,.577-.324,1.117,1.117,0,0,1,.648.324l2.341,2.125a.861.861,0,0,1,.36.684c0,.36-.324.468-.612.468h-9.075v8.571H859.5l2.053-2.665a.777.777,0,0,1,.612-.36,1.014,1.014,0,0,1,.647.324l2.774,2.377a.809.809,0,0,1,.324.648c0,.36-.324.468-.612.468H834.438l-.432-.792h13.432v-8.571h-9.975l-.432-.828h10.407v-7.31h-6.049a26.536,26.536,0,0,1-8.571,3.709l-.144-.324c8.318-4.249,12.315-13.612,13.9-17.826l6.194,1.477c.324.072.864.36.864.756,0,.469-.323.72-.9,1.045,3.529,6.481,10.551,8.534,14.369,9.578v.4A4.205,4.205,0,0,0,864.615-241.193Zm-12.891-12.929h-.361c-3.384,4.646-5.725,7.635-8.858,10.048h10.371l1.4-2.2a.686.686,0,0,1,.576-.36,1.223,1.223,0,0,1,.685.324l.5.432A24.2,24.2,0,0,1,851.724-254.122Z" transform="translate(-106.32 258.587)" fill="#fff"/><path d="M902.9-238.061v11.38c0,2.124-2.2,2.124-2.7,2.124-.935,0-1.008-.215-1.008-.72,0-1.765,0-1.909-.9-2.053,0,.4,0,.541-.252.757a2.942,2.942,0,0,1-1.8.612c-.648,0-.972-.108-.972-.864v-7.742H894.22v7.418c0,.54,0,.792-.324.936a4.71,4.71,0,0,1-1.837.5c-.9,0-.9-.468-.9-1.152v-7.706h-1.045v8.714c0,.972-1.692,1.3-2.3,1.3-.756,0-1.008-.288-1.008-.792v-6.842a15.158,15.158,0,0,1-6.483,7.419l-.252-.325a14.946,14.946,0,0,0,3.566-6.3,1.973,1.973,0,0,1-1.621,1.007,1.454,1.454,0,0,1-1.405-1.512c0-.324.109-1.692.109-1.98a6.277,6.277,0,0,0-.721-3.134V-226c0,.468,0,.54-.143.648a4.378,4.378,0,0,1-2.3.72c-1.3,0-1.3-.36-1.3-.972v-10.191a3.061,3.061,0,0,1-.432.18,20.565,20.565,0,0,1-4.321,8.57l-.324-.215a45.683,45.683,0,0,0,.973-10.444l4.1,1.045V-239.1c-1.044.36-1.152.4-2.2.72-.144.613-.252.937-.685.937a.622.622,0,0,1-.611-.541l-1.225-4.717c.468,0,2.485.072,2.881.072a25.913,25.913,0,0,0,5.581-9.831l4.79,2.089.072.036v-2.593l4.034,1.945h9.47l1.117-1.369a1.035,1.035,0,0,1,.755-.36,1.465,1.465,0,0,1,.613.18l2.556,1.909a.609.609,0,0,1,.288.54,2.45,2.45,0,0,1-1.007,1.584v4.358c0,1.152-2.3,1.44-2.845,1.44-.4,0-1.405,0-1.405-.756v-.757h-9.651v2.521l1.441.9h9.218l1.008-1.045a.816.816,0,0,1,.685-.252,1.137,1.137,0,0,1,.576.18l1.872,1.549a.814.814,0,0,1,.289.684C903.871-239.249,903.69-239,902.9-238.061ZM880.716-254.3a19.688,19.688,0,0,1-4.249,4,2.829,2.829,0,0,1,.971,2.232,2.592,2.592,0,0,1-2.412,2.629c-1.585,0-1.621-1.369-1.692-2.809a4.958,4.958,0,0,0-2.125-3.961l.216-.324a10.881,10.881,0,0,1,4.033,1.476,29.649,29.649,0,0,0,1.261-6.41l5.077,2.017c.252.108.5.252.5.5C882.3-254.337,881.688-254.337,880.716-254.3Zm-1.044,8.859a25.891,25.891,0,0,1-3.89,2.809c2.341-.036,2.881-.036,5.294-.252A5.978,5.978,0,0,0,879.672-245.443Zm5.185-3.781a4.2,4.2,0,0,1-1.333.072,21,21,0,0,1-3.241,3.2c1.189.5,4.466,2.161,4.466,5.221,0,1.225-.612,2.665-1.98,2.665a1.362,1.362,0,0,1-1.4-1.4c0-.252.072-1.476.072-1.728a8.627,8.627,0,0,1-1.441.611v2.737c1.729.9,4.069,2.521,3.926,5.258a40.022,40.022,0,0,0,.936-7.094Zm19.266-5.113H883.849l-.433-.793h15.522L900.666-257c.18-.216.288-.36.576-.36.216,0,.252.036.648.288l2.485,1.656a.7.7,0,0,1,.359.612C904.734-254.445,904.411-254.337,904.123-254.337Zm-5.69,4.177h-9.651v5.149h9.651Zm-7.274,10.155h-1.045v4.609h1.045Zm4.1,0H894.22v4.609h1.044Zm4.285,0h-1.26v4.609h1.26Zm0,5.438h-1.26v6.589c.756.037.828.037,1.044-.036.216-.108.216-.215.216-1.224Z" transform="translate(-105.68 258.587)" fill="#fff"/><path d="M941.938-231.687h-6.122v5.618c0,.864-2.016,1.476-2.665,1.476s-1.188-.252-1.188-.864v-6.23H922.1l-.288-.5a23.824,23.824,0,0,1-11.524,7.995l-.108-.361a26.363,26.363,0,0,0,6.8-6.445c-1.259-.361-1.259-1.4-1.259-2.485,0-.721,0-.757-.613-1.621a17.639,17.639,0,0,1-5.149,2.989l-.145-.36A20.5,20.5,0,0,0,915-242.2h-5.041l-.433-.828h6.338v-4.5h-2.881l-.359-.685a21.911,21.911,0,0,1-2.665,1.513l-.252-.288a22.5,22.5,0,0,0,5.222-10.84l5.4,1.477c.468.144.72.468.72.684a.573.573,0,0,1-.5.54c-.18.072-1.044.288-1.261.36-.287.468-.576.829-.863,1.261h17.392l1.657-2.161a.682.682,0,0,1,.576-.324c.217,0,.252,0,.684.288l2.845,1.873a.8.8,0,0,1,.36.612c0,.36-.288.5-.612.5h-3.888c.107.108.143.18.143.216,0,.54-.72.792-1.08.9v2.629l1.08-1.332c.144-.18.252-.361.576-.361a1,1,0,0,1,.649.325l2.124,1.692a.815.815,0,0,1,.36.612c0,.4-.36.5-.648.5H936.5v4.5h.216l1.62-2.125a.714.714,0,0,1,.576-.36.934.934,0,0,1,.649.324l2.413,1.837a.849.849,0,0,1,.359.648c0,.36-.323.5-.611.5H936.9a.6.6,0,0,1-.179.648,8.781,8.781,0,0,1-.9.721v1.728h1.189l1.224-1.728a.685.685,0,0,1,.577-.36c.252,0,.395.108.683.323l1.837,1.441a.822.822,0,0,1,.4.648c0,.4-.361.5-.613.5h-5.294v5.762h1.369l1.657-2.017a.6.6,0,0,1,.576-.36c.144,0,.288.037.647.325l2.125,1.728a.86.86,0,0,1,.361.648C942.551-231.831,942.263-231.687,941.938-231.687ZM915.866-250.7a19.812,19.812,0,0,1-2.988,2.34h2.988Zm2.81,11.811a21.441,21.441,0,0,1-2.2,2.557,3.434,3.434,0,0,1,2.844,1.26,17.661,17.661,0,0,0,1.189-3.817Zm13.287-3.313H918.315l2.161.792c.288.108.4.144.4.4,0,.181-.036.325-.216.4a6.63,6.63,0,0,1-.9.288c-.072.108-.4.54-.469.612h1.657l.828-.865a1.289,1.289,0,0,1,.972-.432,1.555,1.555,0,0,1,.612.217l2.558,1.908v-1.944l3.961,1.728h2.088Zm-10.442-10.515h-1.585v4.357h1.585Zm0,5.186h-1.585v4.5h1.585Zm4.393,9.974c-.217.181-.757.54-1.117.793a20.9,20.9,0,0,1-2.736,4.249h3.853Zm1.152-15.16h-1.621v4.357h1.621Zm0,5.186h-1.621v4.5h1.621Zm4.9,9.254h-2.376v5.762h2.376Zm.684-14.44h-1.728v4.357h1.728Zm0,5.186h-1.728v4.5h1.728Z" transform="translate(-105.68 258.587)" fill="#fff"/><path d="M977.557-241.122a2.588,2.588,0,0,1-2.377-1.764c-.216-.468-1.008-2.593-1.189-3.025-1.548.324-8.5,1.909-9.938,2.2-1.549.324-8.463,1.584-9.9,1.872l3.925,1.693h13.757l1.008-1.189a1.624,1.624,0,0,1,1.116-.5,2.382,2.382,0,0,1,1.009.324l2.557,1.837a.873.873,0,0,1,.36.684,1.132,1.132,0,0,1-.433.9,6.726,6.726,0,0,0-.719.792v10.516c0,1.332-2.053,2.088-3.062,2.088-.72,0-1.765-.144-1.765-1.044v-1.981h-14.08v1.045a1.123,1.123,0,0,1-.359.936,4.058,4.058,0,0,1-2.7,1.152c-1.765,0-1.945-.432-1.945-1.3v-15.7c-.4.072-.756.109-1.081.144-.215.324-.576.829-.935.829a.528.528,0,0,1-.576-.433l-1.658-5.653c1.189-.036,6.447-.18,7.527-.18a102.927,102.927,0,0,0,4.321-10.8l6.194,1.873a.912.912,0,0,1,.684.72c0,.469-.4.576-1.477.684a74.711,74.711,0,0,1-7.2,7.455c3.709-.108,11.163-.288,14.584-.4a18.024,18.024,0,0,0-5.546-4.969l.109-.36c8.1.756,12.495,5.581,12.495,8.75A2.791,2.791,0,0,1,977.557-241.122Zm-5.655,1.837h-14.08V-228.7H971.9Z" transform="translate(-105.68 258.587)" fill="#fff"/><path d="M998.087-253.978a45.463,45.463,0,0,1-2.737,5.618l.432.4a.914.914,0,0,1,.4.649c0,.5-.54.792-1.009,1.08v19.914c0,1.656-3.024,1.692-3.1,1.692-1.549,0-1.549-.756-1.549-1.224v-15.953a16.227,16.227,0,0,1-5.041,3.817l-.215-.288a42.952,42.952,0,0,0,7.49-19.014l6.121,1.657c.324.072.793.288.793.756S999.491-254.374,998.087-253.978Zm15.881,28.377h-6.05c-5.689,0-5.978-2.628-5.978-5.438v-26.179l5.438.576c.288.036.756.18.756.648,0,.5-.649.684-1.584.973v12.747a51.127,51.127,0,0,0,5.941-9.939l5.294,2.737a.762.762,0,0,1,.468.648c0,.648-.72.648-1.08.648h-.576a50.046,50.046,0,0,1-10.047,8.427v7.994c0,1.945,1.368,1.945,2.341,1.945h3.961a2.5,2.5,0,0,0,2.52-1.225,42.62,42.62,0,0,0,2.484-6.266h.361l-.613,6.374c-.036.505.109.757,1.045,1.4a1.386,1.386,0,0,1,.756,1.224C1019.405-225.6,1015.66-225.6,1013.968-225.6Z" transform="translate(-105.68 258.587)" fill="#fff"/></g></g></svg>